<?xml version="1.0" encoding="utf-8"?>
<!-- Generator: Adobe Illustrator 17.0.0, SVG Export Plug-In . SVG Version: 6.00 Build 0)  -->
<!DOCTYPE svg PUBLIC "-//W3C//DTD SVG 1.1//EN" "http://www.w3.org/Graphics/SVG/1.1/DTD/svg11.dtd">
<svg version="1.1" id="Layer_1" xmlns="http://www.w3.org/2000/svg" xmlns:xlink="http://www.w3.org/1999/xlink" x="0px" y="0px"
	 width="104px" height="119px" viewBox="0 0 104 119" enable-background="new 0 0 104 119" xml:space="preserve">
<rect fill="#FFFFFF" width="104" height="119"/>
<g>
	<g>
		<defs>
			<rect id="SVGID_1_" width="104" height="119"/>
		</defs>
		<clipPath id="SVGID_2_">
			<use xlink:href="#SVGID_1_"  overflow="visible"/>
		</clipPath>
		<g clip-path="url(#SVGID_2_)">
			<polygon fill="#231F20" points="100.74,115.78 3.686,115.78 3.686,0 4.703,0 4.703,114.763 99.723,114.763 99.723,0 100.74,0 			
				"/>
		</g>
	</g>
	<g>
		<defs>
			<rect id="SVGID_3_" width="104" height="119"/>
		</defs>
		<clipPath id="SVGID_4_">
			<use xlink:href="#SVGID_3_"  overflow="visible"/>
		</clipPath>
		<path clip-path="url(#SVGID_4_)" d="M43.41,83.531c-0.48,0-0.886,0.304-1.039,0.719l-2.115,5.353l-0.186,0.609l-0.169-0.622
			l-1.635-5.202c0-0.021-0.014-0.039-0.018-0.048v-0.015c-0.156-0.435-0.569-0.745-1.045-0.745h-2.64
			c-0.596,0.034-1.067,0.514-1.067,1.115c0,0.162,0.076,0.372,0.127,0.571l0.344,1.09l-1.295,3.257l-0.205,0.602L32.3,89.606
			l-1.625-5.216c-0.019-0.021-0.019-0.039-0.024-0.048v-0.015c-0.152-0.435-0.573-0.745-1.046-0.745h-2.641
			c-0.584,0.034-1.063,0.514-1.063,1.115c0,0.162,0.064,0.372,0.13,0.571l3.953,11.782c0.117,0.483,0.563,0.836,1.072,0.836
			c0.503,0,0.923-0.323,1.058-0.779l2.77-6.986l0.204-0.623l0.165,0.616l2.332,6.935c0.119,0.483,0.55,0.836,1.076,0.836
			c0.509,0,0.928-0.337,1.071-0.81l4.684-11.937c0.065-0.148,0.113-0.311,0.113-0.479C44.53,84.033,44.026,83.531,43.41,83.531"/>
	</g>
	<g>
		<defs>
			<rect id="SVGID_5_" width="104" height="119"/>
		</defs>
		<clipPath id="SVGID_6_">
			<use xlink:href="#SVGID_5_"  overflow="visible"/>
		</clipPath>
		<path clip-path="url(#SVGID_6_)" d="M63.105,83.531c-0.478,0-0.889,0.304-1.047,0.719l-2.103,5.353l-0.202,0.609L59.6,89.59
			l-1.646-5.202c0-0.021,0-0.039-0.008-0.048v-0.015c-0.158-0.435-0.574-0.745-1.056-0.745h-2.639
			c-0.593,0.034-1.058,0.514-1.058,1.115c0,0.162,0.06,0.372,0.128,0.571l0.345,1.09l-1.3,3.254l-0.212,0.602l-0.157-0.609
			l-1.628-5.216c-0.017-0.021-0.017-0.039-0.028-0.048v-0.015c-0.145-0.435-0.56-0.745-1.038-0.745h-2.644
			c-0.6,0.034-1.066,0.514-1.066,1.115c0,0.162,0.072,0.372,0.127,0.571l3.966,11.782c0.119,0.483,0.55,0.836,1.073,0.836
			c0.491,0,0.91-0.323,1.058-0.779l2.765-6.986l0.195-0.623l0.175,0.616l2.319,6.935c0.128,0.483,0.562,0.836,1.082,0.836
			c0.506,0,0.938-0.337,1.074-0.81l4.685-11.937c0.07-0.148,0.11-0.311,0.11-0.479C64.223,84.033,63.721,83.531,63.105,83.531"/>
	</g>
	<g>
		<defs>
			<rect id="SVGID_7_" width="104" height="119"/>
		</defs>
		<clipPath id="SVGID_8_">
			<use xlink:href="#SVGID_7_"  overflow="visible"/>
		</clipPath>
		<path clip-path="url(#SVGID_8_)" d="M75.9,83.554h-9.235c-0.535,0-0.962,0.432-0.962,0.966v0.006v2.335v9.928c0,0.007,0-0.005,0,0
			h0.002c0.023,0.554,0.48,1.004,1.033,1.004h2.617c0.567-0.016,1.008-0.462,1.024-1.036v-5.728c0,0,3.746-0.01,3.763-0.01
			c0.551-0.004,0.995-0.453,0.995-1.017c0-0.55-0.451-1.007-1.017-1.007h-3.735l-0.006-3.276h5.572
			c0.574-0.026,1.036-0.499,1.036-1.084C76.987,84.036,76.495,83.554,75.9,83.554"/>
	</g>
	<g>
		<defs>
			<rect id="SVGID_9_" width="104" height="119"/>
		</defs>
		<clipPath id="SVGID_10_">
			<use xlink:href="#SVGID_9_"  overflow="visible"/>
		</clipPath>
		<path clip-path="url(#SVGID_10_)" d="M61.576,44.466c1.68,1.882,1.86,7.481,6.083,5.253c2.539-1.338,2.503-6.988-0.883-9.026
			c-2.741-1.62-4.239,0.564-5.234,3.244C61.468,44.146,61.464,44.358,61.576,44.466"/>
	</g>
	<g>
		<defs>
			<rect id="SVGID_11_" width="104" height="119"/>
		</defs>
		<clipPath id="SVGID_12_">
			<use xlink:href="#SVGID_11_"  overflow="visible"/>
		</clipPath>
		<path clip-path="url(#SVGID_12_)" d="M55.019,43.57c-1.766,1.464-2.979,5.475-6.226,4.113c-2.623-1.335-2.874-6.535,1.647-8.936
			c3.15-1.45,4.75,1.421,4.772,4.467C55.212,43.321,55.11,43.481,55.019,43.57"/>
	</g>
	<g>
		<defs>
			<rect id="SVGID_13_" width="104" height="119"/>
		</defs>
		<clipPath id="SVGID_14_">
			<use xlink:href="#SVGID_13_"  overflow="visible"/>
		</clipPath>
		<path clip-path="url(#SVGID_14_)" d="M59.375,53.805c1.743-0.181,1.35-1.796,0.029-2.203c-1.179-0.351-2.971-0.581-4.236-0.558
			c-2.243,0.052-2.188,1.763-1.022,2.054c0.884,0.296,1.451,0.411,2.215,1.392C57.056,55.839,56.747,54.086,59.375,53.805"/>
	</g>
	<g>
		<defs>
			<rect id="SVGID_15_" width="104" height="119"/>
		</defs>
		<clipPath id="SVGID_16_">
			<use xlink:href="#SVGID_15_"  overflow="visible"/>
		</clipPath>
		<path clip-path="url(#SVGID_16_)" d="M67.603,24.866c2.188-3.647,6-2.94,7.907-1.122c2.101,1.974,2.439,4.255,1.634,5.859
			c-1.096,2.152-3.9,4.768-5.726,2.236c-0.804-1.115-2.517-2.452-3.449-2.837C66.536,28.398,66.262,27.103,67.603,24.866"/>
	</g>
	<g>
		<defs>
			<rect id="SVGID_17_" width="104" height="119"/>
		</defs>
		<clipPath id="SVGID_18_">
			<use xlink:href="#SVGID_17_"  overflow="visible"/>
		</clipPath>
		<path clip-path="url(#SVGID_18_)" d="M76.318,40.945c-0.197-0.645-0.518-0.61-0.503-0.076c0.177,6.648-3.792,13.766-12.285,13.815
			c-2.172,0.003-1.519,3.482-5.481,1.733c-2.86-1.927-4.495,1.867-6.526-2.215c-0.441-1.177-1.113-1.646-1.977-1.863
			C41.16,50.261,38.484,38.718,45.873,29.4c1.464,0.871,1.999,1.006,3.557-0.424c0.815-0.752,2.179-1.581,2.923-1.855
			c1.776-0.681,2.74-1.437,1.2-4.828c-1.971-4.4-6.009-3.156-7.855-1.636c-2.084,1.723-3.549,4.49-0.863,7.753
			c-7.512,5.068-8.801,11.294-8.627,16.703c0.177,5.755-1.296,5.264,0.541,11.122c0.164,0.513-0.195,0.502-0.472,0.337
			c-7.83-5.014-12.064-20.303,0.14-28.733c0.275-0.246,0.164-0.566-0.842,0.021c-10.562,5.587-11.533,16.408-9.781,23.698
			c0.857,3.53-0.446,4.181,0.922,8.819c3.144,9.668,5.825,10.431,9.611,10.711c6.892,0,2.217-3.801,2.471-8.574
			c0-0.28,0.34-0.416,0.534,0.158c3.793,8.508,6.472,16.246,16.44,15.523c5.77-0.75,2.57-3.617,2.219-5.241
			c-4.246-14.086,6.054-17.406,3.139-3.673c-1.927,7.867,4.16,7.078,8.445,4.256C73.993,70.634,79.517,51.484,76.318,40.945
			 M59.523,57.605c-0.953,2.526-5.908,1.66-6.063-0.785c0-0.096,0.131-0.075,0.19-0.062c2.204,0.515,4.305,0.76,5.726,0.753
			C59.427,57.511,59.544,57.482,59.523,57.605"/>
	</g>
	<g>
		<defs>
			<rect id="SVGID_19_" width="104" height="119"/>
		</defs>
		<clipPath id="SVGID_20_">
			<use xlink:href="#SVGID_19_"  overflow="visible"/>
		</clipPath>
		<path clip-path="url(#SVGID_20_)" d="M37.402,74.675c0,1.021-0.834,1.846-1.846,1.846c-1.019,0-1.845-0.825-1.845-1.846
			c0-1.012,0.826-1.84,1.845-1.84C36.568,72.835,37.402,73.663,37.402,74.675 M35.556,72.466c-1.22,0-2.213,0.996-2.213,2.209
			c0,1.223,0.995,2.218,2.213,2.218c1.223,0,2.202-0.995,2.202-2.218C37.759,73.462,36.78,72.466,35.556,72.466"/>
	</g>
	<g>
		<defs>
			<rect id="SVGID_21_" width="104" height="119"/>
		</defs>
		<clipPath id="SVGID_22_">
			<use xlink:href="#SVGID_21_"  overflow="visible"/>
		</clipPath>
		<path clip-path="url(#SVGID_22_)" d="M36.186,75.019c-0.042,0.269-0.267,0.456-0.575,0.456c-0.424,0-0.696-0.376-0.696-0.806
			c0-0.448,0.244-0.785,0.694-0.785c0.298,0,0.518,0.173,0.577,0.438h0.31c-0.056-0.49-0.435-0.763-0.897-0.763
			c-0.66,0-1.037,0.48-1.037,1.11c0,0.632,0.411,1.115,1.049,1.115c0.45,0,0.808-0.29,0.901-0.765H36.186z"/>
	</g>
	<g>
		<defs>
			<rect id="SVGID_23_" width="104" height="119"/>
		</defs>
		<clipPath id="SVGID_24_">
			<use xlink:href="#SVGID_23_"  overflow="visible"/>
		</clipPath>
		<path clip-path="url(#SVGID_24_)" d="M76.268,79.952c0,1.024-0.831,1.847-1.845,1.847c-1.029,0-1.854-0.823-1.854-1.847
			c0-1.017,0.825-1.837,1.854-1.837C75.437,78.116,76.268,78.936,76.268,79.952 M74.423,77.742c-1.231,0-2.213,0.987-2.213,2.211
			c0,1.233,0.982,2.212,2.213,2.212c1.214,0,2.207-0.979,2.207-2.212C76.63,78.729,75.637,77.742,74.423,77.742"/>
	</g>
	<g>
		<defs>
			<rect id="SVGID_25_" width="104" height="119"/>
		</defs>
		<clipPath id="SVGID_26_">
			<use xlink:href="#SVGID_25_"  overflow="visible"/>
		</clipPath>
		<path clip-path="url(#SVGID_26_)" d="M74.039,80.103H74.4l0.556,0.899h0.345l-0.598-0.923c0.311-0.038,0.544-0.201,0.544-0.566
			c0-0.417-0.238-0.596-0.731-0.596H73.71v2.085h0.328L74.039,80.103 M74.039,79.828v-0.649h0.428c0.219,0,0.453,0.057,0.453,0.311
			c0,0.324-0.234,0.338-0.512,0.338C74.408,79.828,74.039,79.828,74.039,79.828z"/>
	</g>
</g>
</svg>
